<?xml version="1.0" encoding="UTF-8"?>
<svg width="84px" height="57px" viewBox="0 0 84 57" version="1.1" xmlns="http://www.w3.org/2000/svg" xmlns:xlink="http://www.w3.org/1999/xlink">
    <!-- Generator: sketchtool 51.2 (57519) - http://www.bohemiancoding.com/sketch -->
    <title>B40231AA-A66D-4E55-98C8-C2F787A89E70@1.5x</title>
    <desc>Created with sketchtool.</desc>
    <defs></defs>
    <g id="Page-1" stroke="none" stroke-width="1" fill="none" fill-rule="evenodd">
        <g id="Home_1" transform="translate(-48.000000, -9.000000)" fill="#066058">
            <g id="2030" transform="translate(48.000000, 9.000000)">
                <path d="M28.2941176,37 C27.8235294,37.25 27.4705882,37.375 27,37.625 C27.2352941,38.125 27.4705882,38.5 27.7058824,39 C28.1764706,38.75 28.6470588,38.5 29,38.25 C28.7647059,37.875 28.5294118,37.375 28.2941176,37" id="Shape"></path>
                <path d="M3.56687898,24.0887203 L0.203821656,21.4691711 C0.203821656,21.4691711 3.36305732,16.5323285 8.96815287,17.036088 C8.96815287,17.036088 13.7579618,17.2375917 15.2866242,21.0661636 C15.2866242,21.0661636 16.9171975,26.20451 13.1464968,29.5293223 C13.1464968,29.5293223 7.03184713,34.7684206 4.68789809,36.0781952 L7.54140127,34.8691725 L16,34.8691725 L16,39 L0,39 L0,35.0706763 L8.86624204,28.018044 C10.7006369,26.5067656 12.1273885,23.4842089 9.88535032,21.6706749 C9.27388535,21.1669155 8.56050955,20.9654117 7.6433121,21.1669155 C5.91082803,21.4691711 4.38216561,23.0812014 3.56687898,24.0887203" id="Shape"></path>
                <path d="M45.1064446,20.9128732 L45.1064446,17 L59.5908109,17 L59.5908109,20.5115529 L54.1591736,25.8290473 C54.1591736,25.8290473 58.685538,26.3306977 59.7919827,30.5445612 C60.9990132,35.3604052 56.7744064,39.3736085 51.7451125,38.9722882 C51.7451125,38.9722882 47.4199198,39.1729484 44,35.1597451 L47.0175763,32.2501726 C47.0175763,32.2501726 49.2304656,35.1597451 52.4492137,34.7584247 C52.4492137,34.7584247 55.2656182,34.7584247 55.3662041,32.2501726 C55.5673759,29.03961 51.6445267,28.8389498 49.2304656,29.1399401 L48.5263645,26.2303677 L55.46679,19.3075919 L52.7509713,20.9128732 L45.1064446,20.9128732 L45.1064446,20.9128732 Z" id="Shape"></path>
                <path d="M72.5,17 C78.8097345,17 84,21.9107143 84,28 C84,34.0892857 78.8097345,39 72.5,39 C66.1902655,39 61,34.0892857 61,28 C61.1017699,21.9107143 66.1902655,17 72.5,17 M72.5,21.2232143 C76.1637168,21.2232143 79.1150442,24.2678571 79.1150442,28 C79.1150442,31.7321429 76.1637168,34.7767857 72.5,34.7767857 C68.8362832,34.7767857 65.8849558,31.7321429 65.8849558,28 C65.8849558,24.2678571 68.9380531,21.2232143 72.5,21.2232143" id="Shape"></path>
                <path d="M31,19 C31.375,18.6470588 31.625,18.4117647 32,18.0588235 C31.625,17.7058824 31.375,17.3529412 31,17 C30.625,17.3529412 30.25,17.7058824 30,18.0588235 C30.25,18.2941176 30.625,18.6470588 31,19" id="Shape"></path>
                <path d="M31,15 C31.3636364,14.6666667 31.6363636,14.4166667 32,14.0833333 C31.6363636,13.75 31.3636364,13.3333333 31,13 C30.6363636,13.3333333 30.2727273,13.6666667 30,14.0833333 C30.3636364,14.4166667 30.6363636,14.6666667 31,15" id="Shape"></path>
                <path d="M31.8421053,17 C32.2631579,16.7 32.5789474,16.5 33,16.2 C32.6842105,15.8 32.4736842,15.4 32.1578947,15 C31.7368421,15.3 31.3157895,15.6 31,15.9 C31.2105263,16.3 31.5263158,16.7 31.8421053,17" id="Shape"></path>
                <path d="M34.2857143,21 C34.2142857,20.75 34.0714286,20.5 34,20.25 C34.2142857,20.1666667 34.5,20.0833333 34.7142857,20 C34.7857143,20.25 34.9285714,20.5 35,20.8333333 C34.7857143,20.8333333 34.5,20.9166667 34.2857143,21" id="Shape"></path>
                <path d="M33.4166667,22 C33.3333333,21.8181818 33.1666667,21.5454545 33,21.3636364 C33.25,21.2727273 33.4166667,21.0909091 33.6666667,21 C33.8333333,21.2727273 33.9166667,21.4545455 34,21.7272727 C33.8333333,21.8181818 33.5833333,21.9090909 33.4166667,22" id="Shape"></path>
                <path d="M33.7058824,20 C33.4705882,19.625 33.2352941,19.125 33,18.75 C33.4705882,18.5 33.8235294,18.25 34.2941176,18 C34.5294118,18.5 34.7647059,19 35,19.375 C34.5294118,19.625 34.1764706,19.875 33.7058824,20" id="Shape"></path>
                <path d="M31.875,20 C31.625,19.7857143 31.25,19.6428571 31,19.4285714 C31.375,19.2857143 31.75,19.1428571 32.125,19 C32.375,19.2142857 32.625,19.4285714 33,19.6428571 C32.625,19.7857143 32.25,19.9285714 31.875,20" id="Shape"></path>
                <path d="M29.1578947,18 C29.4736842,17.6842105 29.6842105,17.2631579 30,16.9473684 C29.5789474,16.6315789 29.2631579,16.3157895 28.8421053,16 C28.5263158,16.4210526 28.3157895,16.8421053 28,17.2631579 C28.4210526,17.4736842 28.8421053,17.7894737 29.1578947,18" id="Shape"></path>
                <path d="M31,38 C31.375,38.3529412 31.625,38.5882353 32,38.9411765 C31.625,39.2941176 31.375,39.6470588 31,40 C30.625,39.6470588 30.25,39.2941176 30,38.9411765 C30.25,38.5882353 30.625,38.2352941 31,38" id="Shape"></path>
                <path d="M31,41 C31.3636364,41.3333333 31.6363636,41.5833333 32,41.9166667 C31.6363636,42.25 31.3636364,42.6666667 31,43 C30.6363636,42.6666667 30.2727273,42.3333333 30,41.9166667 C30.3636364,41.5833333 30.6363636,41.25 31,41" id="Shape"></path>
                <path d="M31.8421053,39 C32.2631579,39.3 32.5789474,39.5 33,39.8 C32.6842105,40.2 32.4736842,40.6 32.1578947,41 C31.7368421,40.7 31.3157895,40.4 31,40.1 C31.2105263,39.7 31.5263158,39.4 31.8421053,39" id="Shape"></path>
                <path d="M29.1578947,39 C29.4736842,39.3157895 29.6842105,39.7368421 30,40.0526316 C29.5789474,40.3684211 29.2631579,40.6842105 28.8421053,41 C28.5263158,40.5789474 28.3157895,40.1578947 28,39.7368421 C28.4210526,39.5263158 28.8421053,39.3157895 29.1578947,39" id="Shape"></path>
                <path d="M36.2142857,20 C36.5,19.9230769 36.7142857,19.9230769 37,19.9230769 C37,19.6153846 36.9285714,19.3076923 36.8571429,19 C36.5714286,19.0769231 36.2857143,19.0769231 36,19.1538462 C36.1428571,19.4615385 36.1428571,19.7692308 36.2142857,20" id="Shape"></path>
                <path d="M38.3157895,18 C38.8421053,17.8947368 39.3684211,17.7894737 40,17.7894737 C40,17.1578947 39.8947368,16.6315789 39.7894737,16 C39.1578947,16.1052632 38.6315789,16.2105263 38,16.4210526 C38.1052632,16.8421053 38.2105263,17.4736842 38.3157895,18" id="Shape"></path>
                <path d="M38.2666667,20 L40,20 L40,19 C39.3333333,19 38.6666667,19 38,19.0714286 C38.1333333,19.3571429 38.2666667,19.6428571 38.2666667,20" id="Shape"></path>
                <path d="M38,22.6 C38,22.0666667 38.0769231,21.5333333 38.0769231,21 C38.3846154,21 38.6923077,21.1333333 39,21.2666667 C38.9230769,21.8 38.9230769,22.3333333 38.8461538,23 C38.6153846,22.8666667 38.3076923,22.7333333 38,22.6" id="Shape"></path>
                <path d="M36.0909091,21.8333333 C36.0909091,21.5833333 36,21.25 36,21 C36.3636364,21 36.6363636,21 37,21.0833333 L37,22 C36.6363636,21.8333333 36.3636364,21.8333333 36.0909091,21.8333333" id="Shape"></path>
                <path d="M35.2727273,22.8368421 C35.1818182,22.5578947 35.0909091,22.3719298 35,22.0929825 C35.2727273,22 35.5454545,22 35.8181818,22 C35.9090909,22.2789474 35.9090909,22.5578947 36,22.8368421 C35.8181818,22.7438596 35.5454545,22.7438596 35.2727273,22.8368421" id="Shape"></path>
                <path d="M35.4705882,19 C35.9411765,18.8823529 36.4117647,18.7647059 37,18.6470588 C36.8823529,18.0588235 36.7647059,17.5882353 36.5294118,17 C36.0588235,17.2352941 35.4705882,17.3529412 35,17.5882353 C35.1176471,17.9411765 35.3529412,18.4117647 35.4705882,19" id="Shape"></path>
                <path d="M24.8571429,36 C24.9285714,36.3076923 24.9285714,36.5384615 25,36.8461538 C24.7142857,36.9230769 24.4285714,37 24.1428571,37 C24.0714286,36.6923077 24.0714286,36.3846154 24,36.0769231 C24.3571429,36.0769231 24.5714286,36.0769231 24.8571429,36" id="Shape"></path>
                <path d="M24.9090909,34.1666667 C24.9090909,34.4166667 25,34.75 25,35 C24.6363636,35 24.3636364,35 24,34.9166667 L24,34 C24.2727273,34.0833333 24.6363636,34.0833333 24.9090909,34.1666667" id="Shape"></path>
                <path d="M23.6842105,38 C23.7894737,38.5263158 23.8947368,39.0526316 24,39.5789474 C23.3684211,39.7894737 22.8421053,39.8947368 22.2105263,40 C22.1052632,39.3684211 22.1052632,38.8421053 22,38.2105263 C22.5263158,38.2105263 23.1578947,38.1052632 23.6842105,38" id="Shape"></path>
                <path d="M26.4117647,38 C26.5294118,38.4444444 26.7647059,38.8888889 27,39.4444444 C26.5294118,39.6666667 25.9411765,39.7777778 25.4705882,40 C25.3529412,39.4444444 25.1176471,39 25,38.4444444 C25.4705882,38.3333333 25.9411765,38.2222222 26.4117647,38" id="Shape"></path>
                <path d="M30.0666667,36 C29.6666667,36.1428571 29.2666667,36.2142857 29,36.3571429 C29.2666667,36.5714286 29.5333333,36.7857143 29.8,37 C30.2,36.8571429 30.6,36.7142857 31,36.5714286 C30.7333333,36.3571429 30.3333333,36.1428571 30.0666667,36" id="Shape"></path>
                <path d="M28.6153846,35 C28.3846154,35.0909091 28.2307692,35.1818182 28,35.2727273 C28.0769231,35.5454545 28.2307692,35.7272727 28.3846154,36 C28.6153846,35.9090909 28.8461538,35.7272727 29,35.6363636 C28.8461538,35.3636364 28.7692308,35.1818182 28.6153846,35" id="Shape"></path>
                <path d="M26.6666667,35 C26.4666667,35.0833333 26.2,35.1666667 26,35.1666667 C26.0666667,35.4166667 26.2,35.75 26.2666667,36 C26.5333333,35.9166667 26.7333333,35.8333333 27,35.6666667 C26.8666667,35.5 26.8,35.25 26.6666667,35" id="Shape"></path>
                <path d="M26.7272727,34 L26,34 C26,34.2789474 26.0909091,34.5578947 26.1818182,34.8368421 C26.4545455,34.8368421 26.7272727,34.7438596 27,34.7438596 C26.9090909,34.4649123 26.8181818,34.2789474 26.7272727,34" id="Shape"></path>
                <path d="M22.9333333,36 C22.9333333,36.2857143 22.9333333,36.6428571 23,36.9285714 C22.6666667,37 22.3333333,37 22,37 L22,36 C22.3333333,36 22.6,36 22.9333333,36" id="Shape"></path>
                <path d="M40,25.25 C40.375,25.5 40.875,25.75 41.25,26 C41.5,25.5 41.75,25.125 42,24.625 C41.5,24.375 41.125,24.125 40.625,24 C40.375,24.5 40.125,24.875 40,25.25" id="Shape"></path>
                <path d="M36,23.8181818 C36.2788235,23.9090909 36.4647059,23.9090909 36.7435294,24 C36.7435294,23.7272727 36.8364706,23.4545455 36.8364706,23.1818182 C36.5576471,23.0909091 36.2788235,23.0909091 36,23 L36,23.8181818" id="Shape"></path>
                <path d="M38,24.6923077 C38.2307692,24.7692308 38.4615385,24.9230769 38.7692308,25 C38.8461538,24.7692308 38.9230769,24.4615385 39,24.2307692 C38.6923077,24.1538462 38.4615385,24.0769231 38.1538462,24 C38.0769231,24.2307692 38.0769231,24.4615385 38,24.6923077" id="Shape"></path>
                <path d="M43,24.3636364 C43.4347826,24.5454545 43.7826087,24.8181818 44.2173913,25 C44.4782609,24.5454545 44.7391304,24.0909091 45,23.6363636 C44.5652174,23.4545455 44.1304348,23.1818182 43.6086957,23 C43.4347826,23.4545455 43.173913,23.9090909 43,24.3636364" id="Shape"></path>
                <path d="M41,26.1578947 C41.4,26.4736842 41.7,26.6842105 42.1,27 C42.4,26.5789474 42.7,26.2631579 43,25.8421053 C42.6,25.5263158 42.2,25.3157895 41.8,25 C41.5,25.4210526 41.2,25.8421053 41,26.1578947" id="Shape"></path>
                <path d="M40,23.4444444 C40.4705882,23.5555556 40.9411765,23.7777778 41.4117647,24 C41.6470588,23.5555556 41.8823529,23 42,22.4444444 C41.5294118,22.3333333 40.9411765,22.1111111 40.3529412,22 C40.2352941,22.5555556 40.1176471,23 40,23.4444444" id="Shape"></path>
                <path d="M22,30.75 C21.75,31.125 21.625,31.625 21.375,32 C20.875,31.75 20.5,31.625 20,31.375 C20.25,30.875 20.5,30.5 20.75,30 C21.125,30.375 21.625,30.625 22,30.75" id="Shape"></path>
                <path d="M24,27.5 C23.8181818,27.6428571 23.6363636,27.7857143 23.5454545,28 C23.3636364,27.8571429 23.1818182,27.7142857 23,27.5 C23.1818182,27.3571429 23.3636364,27.1428571 23.5454545,27 C23.6363636,27.1428571 23.8181818,27.3571429 24,27.5" id="Shape"></path>
                <path d="M22,29.875 C21.8461538,30.25 21.6923077,30.625 21.6153846,31 C21.3846154,30.75 21.1538462,30.5 21,30.125 C21.1538462,29.75 21.3076923,29.375 21.5384615,29 C21.6153846,29.375 21.7692308,29.625 22,29.875" id="Shape"></path>
                <path d="M19,31.7272727 C18.826087,32.1818182 18.5652174,32.5454545 18.3913043,33 C17.9565217,32.8181818 17.4347826,32.6363636 17,32.3636364 C17.2608696,31.9090909 17.5217391,31.4545455 17.7826087,31 C18.2173913,31.2727273 18.5652174,31.4545455 19,31.7272727" id="Shape"></path>
                <path d="M21,33.5555556 C20.8888889,34 20.6666667,34.5555556 20.5555556,35 C20,34.8888889 19.5555556,34.7777778 19,34.5555556 C19.2222222,34 19.3333333,33.5555556 19.5555556,33 C20.1111111,33.2222222 20.5555556,33.3333333 21,33.5555556" id="Shape"></path>
                <path d="M24.8364706,32.1818182 C24.5576471,32.0909091 24.3717647,32.0909091 24.0929412,32 C24.0929412,32.2727273 24,32.5454545 24,32.8181818 C24.2788235,32.9090909 24.5576471,32.9090909 24.8364706,33 C24.7435294,32.7272727 24.7435294,32.4545455 24.8364706,32.1818182" id="Shape"></path>
                <path d="M23,33.2142857 C22.6923077,33.1428571 22.3846154,33.0714286 22.1538462,33 C22.0769231,33.2857143 22.0769231,33.5714286 22,33.8571429 C22.3076923,33.9285714 22.6153846,33.9285714 23,34 C22.9230769,33.7142857 23,33.4285714 23,33.2142857" id="Shape"></path>
                <path d="M23,31.3076923 C22.7692308,31.2307692 22.4615385,31.0769231 22.2307692,31 C22.1538462,31.2307692 22.0769231,31.5384615 22,31.7692308 C22.3076923,31.8461538 22.5384615,31.9230769 22.8461538,32 C22.8461538,31.8461538 22.9230769,31.5384615 23,31.3076923" id="Shape"></path>
                <path d="M24,30.3846154 C23.8181818,30.2307692 23.5454545,30.1538462 23.3636364,30 C23.2727273,30.2307692 23.0909091,30.3846154 23,30.6153846 C23.2727273,30.7692308 23.4545455,30.8461538 23.7272727,31 C23.8181818,30.8461538 23.9090909,30.6153846 24,30.3846154" id="Shape"></path>
                <path d="M20,29.8421053 C19.7894737,30.2631579 19.4736842,30.5789474 19.2631579,31 C18.8421053,30.7894737 18.4210526,30.4736842 18,30.1578947 C18.3157895,29.7368421 18.6315789,29.3157895 18.9473684,29 C19.1578947,29.3157895 19.5789474,29.5263158 20,29.8421053" id="Shape"></path>
                <path d="M40,30.75 C40.25,31.125 40.375,31.625 40.625,32 C41.125,31.75 41.5,31.625 42,31.375 C41.75,30.875 41.5,30.5 41.25,30 C40.75,30.375 40.375,30.5 40,30.75" id="Shape"></path>
                <path d="M39,27.125 C39.1538462,27.375 39.3846154,27.625 39.5384615,28 C39.6923077,27.625 39.8461538,27.25 40,26.875 C39.7692308,26.625 39.6153846,26.375 39.3846154,26 C39.3076923,26.375 39.1538462,26.75 39,27.125" id="Shape"></path>
                <path d="M38,27.5 C38.1818182,27.6428571 38.3636364,27.7857143 38.4545455,28 C38.6363636,27.8571429 38.8181818,27.7142857 39,27.5 C38.8181818,27.3571429 38.6363636,27.2142857 38.4545455,27 C38.3636364,27.1428571 38.1818182,27.3571429 38,27.5" id="Shape"></path>
                <path d="M40,28 C40.3529412,28.3333333 40.5882353,28.6666667 40.9411765,29 C41.2941176,28.6666667 41.6470588,28.3333333 42,28 C41.6470588,27.6666667 41.2941176,27.3333333 40.9411765,27 C40.7058824,27.3333333 40.3529412,27.6666667 40,28" id="Shape"></path>
                <path d="M39,29.875 C39.1538462,30.25 39.3076923,30.625 39.3846154,31 C39.6153846,30.75 39.8461538,30.5 40,30.125 C39.8461538,29.75 39.6923077,29.375 39.4615385,29 C39.3846154,29.375 39.1538462,29.625 39,29.875" id="Shape"></path>
                <path d="M43,31.7272727 C43.173913,32.1818182 43.4347826,32.5454545 43.6086957,33 C44.0434783,32.8181818 44.5652174,32.6363636 45,32.3636364 C44.7391304,31.9090909 44.4782609,31.4545455 44.2173913,31 C43.7826087,31.2727273 43.4347826,31.5454545 43,31.7272727" id="Shape"></path>
                <path d="M37,25.6666667 C37.1858824,25.75 37.4647059,25.9166667 37.6505882,26 C37.7435294,25.75 37.8364706,25.5 37.9294118,25.3333333 C37.6505882,25.25 37.4647059,25.0833333 37.1858824,25 C37.1858824,25.1666667 37.0929412,25.4166667 37,25.6666667" id="Shape"></path>
                <path d="M41,32.5555556 C41.1111111,33 41.3333333,33.4444444 41.4444444,34 C42,33.8888889 42.4444444,33.7777778 43,33.5555556 C42.7777778,33 42.6666667,32.5555556 42.4444444,32 C41.8888889,32.2222222 41.4444444,32.4444444 41,32.5555556" id="Shape"></path>
                <path d="M41,29.8421053 C41.3157895,30.2631579 41.5263158,30.5789474 41.7368421,31 C42.1578947,30.7894737 42.5789474,30.4736842 43,30.1578947 C42.6842105,29.7368421 42.3684211,29.4210526 42.0526316,29 C41.7368421,29.3157895 41.4210526,29.6315789 41,29.8421053" id="Shape"></path>
                <path d="M22,25.25 C21.625,25.5 21.125,25.75 20.75,26 C20.5,25.625 20.25,25.125 20,24.625 C20.5,24.375 20.875,24.125 21.375,24 C21.625,24.375 21.875,24.75 22,25.25" id="Shape"></path>
                <path d="M19,24.2727273 C18.5652174,24.4545455 18.2173913,24.7272727 17.7826087,25 C17.5217391,24.5454545 17.2608696,24.0909091 17,23.6363636 C17.4347826,23.3636364 17.8695652,23.1818182 18.3913043,23 C18.5652174,23.4545455 18.826087,23.9090909 19,24.2727273" id="Shape"></path>
                <path d="M20,26.1578947 C19.6,26.4736842 19.3,26.6842105 18.9,27 C18.6,26.5789474 18.3,26.2631579 18,25.8421053 C18.4,25.5263158 18.8,25.2105263 19.2,25 C19.5,25.3157895 19.7,25.7368421 20,26.1578947" id="Shape"></path>
                <path d="M22,28 C21.6470588,27.6666667 21.4117647,27.3333333 21.0588235,27 C20.7058824,27.3333333 20.3529412,27.6666667 20,28 C20.3529412,28.3333333 20.7058824,28.6666667 21.0588235,29 C21.4117647,28.6666667 21.6470588,28.3333333 22,28" id="Shape"></path>
                <path d="M22,27.125 C21.8461538,26.75 21.6923077,26.375 21.6153846,26 C21.3846154,26.25 21.1538462,26.5 21,26.875 C21.1538462,27.25 21.3076923,27.625 21.5384615,28 C21.6923077,27.75 21.8461538,27.5 22,27.125" id="Shape"></path>
                <path d="M21,23.4444444 C20.5294118,23.5555556 20.0588235,23.7777778 19.5882353,24 C19.3529412,23.5555556 19.1176471,23 19,22.4444444 C19.4705882,22.3333333 20.0588235,22.1111111 20.6470588,22 C20.7647059,22.4444444 20.8823529,23 21,23.4444444" id="Shape"></path>
                <path d="M36.1538462,36 C36.0769231,36.3076923 36.0769231,36.5384615 36,36.8461538 C36.3076923,36.9230769 36.6153846,37 36.9230769,37 C37,36.6923077 37,36.3846154 37,36.0769231 C36.7692308,36.0769231 36.4615385,36.0769231 36.1538462,36" id="Shape"></path>
                <path d="M38,31.3076923 C38.0833333,31.5384615 38.0833333,31.7692308 38.1666667,32 C38.4166667,31.9230769 38.75,31.8461538 39,31.7692308 C38.9166667,31.5384615 38.8333333,31.2307692 38.75,31 C38.5,31.0769231 38.25,31.1538462 38,31.3076923" id="Shape"></path>
                <path d="M37,32.2727273 L37,33 C37.2788235,32.9090909 37.5576471,32.9090909 37.8364706,32.8181818 C37.8364706,32.5454545 37.7435294,32.2727273 37.7435294,32 C37.5576471,32.1818182 37.2788235,32.1818182 37,32.2727273" id="Shape"></path>
                <path d="M38,33.4 C38,33.9333333 38.0769231,34.4666667 38.0769231,35 C38.3846154,34.8666667 38.6923077,34.8666667 39,34.7333333 C38.9230769,34.2 38.9230769,33.6666667 38.8461538,33 C38.5384615,33.1333333 38.3076923,33.2666667 38,33.4" id="Shape"></path>
                <path d="M36.0909091,34.1666667 C36.0909091,34.4166667 36.0909091,34.75 36,35 C36.3636364,35 36.6363636,35 37,34.9166667 L37,34 C36.7272727,34.0833333 36.4545455,34.1666667 36.0909091,34.1666667" id="Shape"></path>
                <path d="M38.3157895,38 C38.2105263,38.5263158 38.1052632,39.0526316 38,39.5789474 C38.6315789,39.6842105 39.1578947,39.8947368 39.7894737,40 C39.8947368,39.3684211 39.8947368,38.8421053 40,38.2105263 C39.3684211,38.1052632 38.8421053,38.1052632 38.3157895,38" id="Shape"></path>
                <path d="M37,30.3846154 C37.0909091,30.6153846 37.1818182,30.7692308 37.2727273,31 C37.5454545,30.9230769 37.7272727,30.7692308 38,30.6153846 C37.9090909,30.3846154 37.7272727,30.2307692 37.6363636,30 C37.4545455,30.1538462 37.1818182,30.3076923 37,30.3846154" id="Shape"></path>
                <path d="M35.4705882,38 C35.3529412,38.4444444 35.1176471,38.8888889 35,39.4444444 C35.4705882,39.6666667 36.0588235,39.7777778 36.5294118,40 C36.6470588,39.4444444 36.8823529,39 37,38.4444444 C36.4117647,38.2222222 35.9411765,38.1111111 35.4705882,38" id="Shape"></path>
                <path d="M31.4666667,36 C31.6666667,36.1428571 31.8666667,36.2142857 32,36.3571429 C31.8666667,36.5714286 31.7333333,36.7857143 31.6,37 C31.4,36.8571429 31.2,36.7142857 31,36.5714286 C31.2,36.3571429 31.3333333,36.1428571 31.4666667,36" id="Shape"></path>
                <path d="M32.3333333,35 C32.5833333,35.0909091 32.75,35.1818182 33,35.2727273 C32.9166667,35.5454545 32.75,35.7272727 32.6666667,36 C32.4166667,35.9090909 32.1666667,35.8181818 32,35.6363636 C32.0833333,35.4545455 32.25,35.2727273 32.3333333,35" id="Shape"></path>
                <path d="M33.7058824,37 C34.1764706,37.1333333 34.5294118,37.2 35,37.2666667 C34.7647059,37.5333333 34.5294118,37.8 34.2941176,38 C33.8235294,37.8666667 33.3529412,37.7333333 33,37.6 C33.2352941,37.4 33.4705882,37.2 33.7058824,37" id="Shape"></path>
                <path d="M34.3333333,35 C34.5333333,35.0833333 34.8,35.1666667 35,35.1666667 C34.9333333,35.4166667 34.8666667,35.75 34.7333333,36 C34.4666667,35.9166667 34.2666667,35.8333333 34,35.75 C34.1333333,35.5 34.2666667,35.25 34.3333333,35" id="Shape"></path>
                <path d="M30.4615385,35 C30.6153846,35.1818182 30.7692308,35.3636364 31,35.4545455 C30.8461538,35.6363636 30.6923077,35.8181818 30.4615385,36 C30.3076923,35.8181818 30.1538462,35.6363636 30,35.4545455 C30.1538462,35.3636364 30.3076923,35.1818182 30.4615385,35" id="Shape"></path>
                <path d="M35.2727273,34 L36,34 C36,34.2789474 35.9090909,34.5578947 35.8181818,34.8368421 C35.5454545,34.8368421 35.2727273,34.7438596 35,34.7438596 C35.0909091,34.5578947 35.1818182,34.2789474 35.2727273,34" id="Shape"></path>
                <path d="M38.0666667,36 C38.0666667,36.2857143 38.0666667,36.6428571 38,36.9285714 C38.3333333,36.9285714 38.6666667,37 39,37 C39,36.6428571 39,36.3571429 38.9333333,36 C38.6666667,36 38.3333333,36 38.0666667,36" id="Shape"></path>
                <path d="M24.8461538,20 C24.5384615,19.9230769 24.3076923,19.9230769 24,19.9230769 C24,19.6153846 24.0769231,19.3076923 24.0769231,19 C24.3846154,19.0769231 24.6923077,19.0769231 25,19.1538462 C25,19.4615385 24.9230769,19.6923077 24.8461538,20" id="Shape"></path>
                <path d="M29.5333333,20 C29.3333333,19.8571429 29.1333333,19.7857143 29,19.6428571 C29.1333333,19.4285714 29.2666667,19.2142857 29.4,19 C29.6,19.1428571 29.8,19.2857143 30,19.4285714 C29.8666667,19.5714286 29.6666667,19.7857143 29.5333333,20" id="Shape"></path>
                <path d="M28.6666667,21 C28.4166667,20.9090909 28.25,20.8181818 28,20.7272727 C28.0833333,20.4545455 28.25,20.2727273 28.3333333,20 C28.5833333,20.0909091 28.8333333,20.1818182 29,20.3636364 C28.9166667,20.5454545 28.8333333,20.8181818 28.6666667,21" id="Shape"></path>
                <path d="M28.2941176,19 C27.8235294,18.8666667 27.4705882,18.8 27,18.7333333 C27.2352941,18.4666667 27.4705882,18.2 27.7058824,18 C28.1764706,18.1333333 28.6470588,18.2666667 29,18.4 C28.6470588,18.5333333 28.4117647,18.7333333 28.2941176,19" id="Shape"></path>
                <path d="M26.6666667,21 C26.4666667,20.9166667 26.2,20.8333333 26,20.8333333 C26.0666667,20.5833333 26.1333333,20.25 26.2666667,20 C26.5333333,20.0833333 26.7333333,20.1666667 27,20.25 C26.8,20.5 26.7333333,20.75 26.6666667,21" id="Shape"></path>
                <path d="M23.6842105,18 C23.1578947,17.8947368 22.6315789,17.8947368 22,17.7894737 C22,17.1578947 22.1052632,16.6315789 22.2105263,16 C22.8421053,16.1052632 23.3684211,16.2105263 24,16.4210526 C23.7894737,16.8421053 23.6842105,17.3684211 23.6842105,18" id="Shape"></path>
                <path d="M30.5384615,21 C30.3846154,20.8181818 30.2307692,20.6363636 30,20.5454545 C30.1538462,20.3636364 30.3076923,20.1818182 30.5384615,20 C30.6923077,20.1818182 30.8461538,20.3636364 31,20.5454545 C30.9230769,20.7272727 30.7692308,20.8181818 30.5384615,21" id="Shape"></path>
                <path d="M22.9333333,20 L22.0666667,20 C22.0666667,19.6428571 22,19.3571429 22,19 C22.3333333,19 22.6666667,19 23,19.0714286 C22.9333333,19.4285714 22.9333333,19.7142857 22.9333333,20" id="Shape"></path>
                <path d="M23,24.6923077 C22.9166667,24.4615385 22.9166667,24.2307692 22.8333333,24 C22.5833333,24.0769231 22.25,24.1538462 22,24.2307692 C22.0833333,24.4615385 22.1666667,24.7692308 22.25,25 C22.5,24.8461538 22.75,24.7692308 23,24.6923077" id="Shape"></path>
                <path d="M24.8364706,23.7272727 L24.8364706,23 C24.5576471,23.0909091 24.2788235,23.0909091 24,23.1818182 C24,23.4545455 24.0929412,23.7272727 24.0929412,24 C24.3717647,23.9090909 24.6505882,23.8181818 24.8364706,23.7272727" id="Shape"></path>
                <path d="M23,22.8 C23,22.5333333 22.9230769,22.2666667 22.9230769,22 C22.6153846,22.0666667 22.3076923,22.0666667 22,22.1333333 C22.0769231,22.4 22.0769231,22.6666667 22.1538462,23 C22.3846154,22.9333333 22.6923077,22.8666667 23,22.8" id="Shape"></path>
                <path d="M24.9090909,21.8333333 C24.9090909,21.5833333 24.9090909,21.25 25,21 C24.6363636,21 24.3636364,21 24,21.0833333 L24,22 C24.3636364,21.9166667 24.6363636,21.9166667 24.9090909,21.8333333" id="Shape"></path>
                <path d="M24,25.6153846 C23.9090909,25.3846154 23.8181818,25.2307692 23.7272727,25 C23.4545455,25.0769231 23.2727273,25.2307692 23,25.3846154 C23.0909091,25.6153846 23.2727273,25.7692308 23.3636364,26 C23.5454545,25.8461538 23.7272727,25.7692308 24,25.6153846" id="Shape"></path>
                <path d="M26.8181818,22.8368421 C26.9090909,22.5578947 27,22.3719298 27,22.0929825 C26.7272727,22.0929825 26.4545455,22 26.1818182,22 C26.0909091,22.2789474 26.0909091,22.5578947 26,22.8368421 C26.2727273,22.8368421 26.5454545,22.8368421 26.8181818,22.8368421" id="Shape"></path>
                <path d="M26.5294118,19 C26.0588235,18.8823529 25.5882353,18.7647059 25,18.6470588 C25.1176471,18.0588235 25.2352941,17.5882353 25.4705882,17 C25.9411765,17.1176471 26.5294118,17.3529412 27,17.5882353 C26.8823529,18.0588235 26.6470588,18.5294118 26.5294118,19" id="Shape"></path>
                <path d="M0,56.787234 L0,52.212766 L0.602905569,52.212766 L0.602905569,54.5531915 L2.81355932,52.212766 L3.61743341,52.212766 L1.60774818,54.1276596 L3.51694915,56.893617 L2.71307506,56.893617 L1.20581114,54.5531915 L0.502421308,55.2978723 L0.502421308,56.893617 L0,56.893617 L0,56.787234 Z M78.8801453,56.787234 L80.5883777,52.212766 L81.1912833,52.212766 L83,56.787234 L82.2966102,56.787234 L81.7941889,55.4042553 L79.9854722,55.4042553 L79.4830508,56.787234 L78.8801453,56.787234 Z M80.0859564,54.9787234 L81.5932203,54.9787234 L81.090799,53.7021277 C80.9903148,53.2765957 80.8898305,52.9574468 80.7893462,52.7446809 C80.688862,53.0638298 80.688862,53.3829787 80.5883777,53.5957447 L80.0859564,54.9787234 Z M77.7748184,52.212766 L78.377724,52.212766 L78.377724,56.787234 L77.7748184,56.787234 L77.7748184,52.212766 Z M73.5544794,56.787234 L73.5544794,52.212766 L75.1622276,52.212766 C75.4636804,52.212766 75.7651332,52.212766 75.9661017,52.3191489 C76.1670702,52.4255319 76.3680387,52.5319149 76.468523,52.7446809 C76.5690073,52.9574468 76.6694915,53.1702128 76.6694915,53.3829787 C76.6694915,53.5957447 76.6694915,53.8085106 76.468523,53.9148936 C76.3680387,54.1276596 76.1670702,54.2340426 75.9661017,54.3404255 C76.2675545,54.4468085 76.468523,54.5531915 76.5690073,54.7659574 C76.6694915,54.9787234 76.7699758,55.1914894 76.7699758,55.5106383 C76.7699758,55.7234043 76.7699758,55.9361702 76.6694915,56.1489362 C76.5690073,56.3617021 76.468523,56.4680851 76.3680387,56.5744681 C76.2675545,56.6808511 76.066586,56.787234 75.8656174,56.787234 C75.6646489,56.787234 75.4636804,56.893617 75.1622276,56.893617 L73.5544794,56.893617 L73.5544794,56.787234 Z M74.157385,54.1276596 L75.0617433,54.1276596 C75.3631961,54.1276596 75.4636804,54.1276596 75.5641646,54.0212766 C75.6646489,54.0212766 75.8656174,53.9148936 75.8656174,53.8085106 C75.9661017,53.7021277 75.9661017,53.5957447 75.9661017,53.3829787 C75.9661017,53.2765957 75.9661017,53.0638298 75.8656174,52.9574468 C75.7651332,52.8510638 75.6646489,52.7446809 75.5641646,52.7446809 C75.4636804,52.7446809 75.2627119,52.6382979 74.8607748,52.6382979 L73.9564165,52.6382979 L73.9564165,54.1276596 L74.157385,54.1276596 Z M74.157385,56.2553191 L75.2627119,56.2553191 L75.6646489,56.2553191 C75.7651332,56.2553191 75.8656174,56.1489362 75.9661017,56.1489362 C76.066586,56.0425532 76.1670702,56.0425532 76.1670702,55.9361702 C76.2675545,55.8297872 76.2675545,55.7234043 76.2675545,55.5106383 C76.2675545,55.2978723 76.2675545,55.1914894 76.1670702,55.0851064 C76.066586,54.9787234 75.9661017,54.8723404 75.8656174,54.7659574 C75.7651332,54.7659574 75.4636804,54.6595745 75.2627119,54.6595745 L74.2578692,54.6595745 L74.2578692,56.2553191 L74.157385,56.2553191 Z M69.0326877,56.787234 L70.7409201,52.212766 L71.3438257,52.212766 L73.1525424,56.787234 L72.4491525,56.787234 L71.9467312,55.4042553 L70.1380145,55.4042553 L69.6355932,56.787234 L69.0326877,56.787234 Z M70.2384988,54.9787234 L71.7457627,54.9787234 L71.2433414,53.7021277 C71.1428571,53.2765957 71.0423729,52.9574468 70.9418886,52.7446809 C70.8414044,53.0638298 70.8414044,53.3829787 70.7409201,53.5957447 L70.2384988,54.9787234 Z M65.1138015,56.787234 L65.1138015,52.212766 L67.0230024,52.212766 C67.4249395,52.212766 67.7263923,52.212766 67.9273608,52.3191489 C68.1283293,52.4255319 68.3292978,52.5319149 68.4297821,52.7446809 C68.5302663,52.9574468 68.6307506,53.1702128 68.6307506,53.4893617 C68.6307506,53.8085106 68.5302663,54.1276596 68.3292978,54.3404255 C68.1283293,54.5531915 67.8268765,54.6595745 67.4249395,54.7659574 C67.625908,54.8723404 67.7263923,54.8723404 67.7263923,54.9787234 C67.9273608,55.1914894 68.027845,55.2978723 68.2288136,55.6170213 L69.0326877,56.893617 L68.3292978,56.893617 L67.7263923,55.9361702 C67.5254237,55.6170213 67.4249395,55.4042553 67.3244552,55.2978723 C67.2239709,55.1914894 67.1234867,55.0851064 67.0230024,54.9787234 C66.9225182,54.8723404 66.8220339,54.8723404 66.7215496,54.8723404 L66.4200969,54.8723404 L65.716707,54.8723404 L65.716707,56.893617 L65.1138015,56.893617 L65.1138015,56.787234 Z M65.716707,54.2340426 L66.9225182,54.2340426 C67.2239709,54.2340426 67.4249395,54.2340426 67.5254237,54.1276596 C67.625908,54.0212766 67.8268765,54.0212766 67.8268765,53.8085106 C67.9273608,53.7021277 67.9273608,53.5957447 67.9273608,53.3829787 C67.9273608,53.1702128 67.8268765,52.9574468 67.7263923,52.8510638 C67.625908,52.7446809 67.3244552,52.6382979 67.0230024,52.6382979 L65.6162228,52.6382979 L65.6162228,54.2340426 L65.716707,54.2340426 Z M60.5920097,56.787234 L62.3002421,52.212766 L62.9031477,52.212766 L64.7118644,56.787234 L64.0084746,56.787234 L63.5060533,55.4042553 L61.6973366,55.4042553 L61.1949153,56.787234 L60.5920097,56.787234 Z M61.7978208,54.9787234 L63.3050847,54.9787234 L62.8026634,53.7021277 C62.7021792,53.2765957 62.6016949,52.9574468 62.5012107,52.7446809 C62.4007264,53.0638298 62.4007264,53.3829787 62.3002421,53.5957447 L61.7978208,54.9787234 Z M58.0799031,52.212766 L58.6828087,52.212766 L58.6828087,56.787234 L58.0799031,56.787234 L58.0799031,52.212766 Z M53.5581114,56.787234 L53.5581114,52.212766 L55.0653753,52.212766 C55.3668281,52.212766 55.6682809,52.212766 55.8692494,52.3191489 C56.0702179,52.4255319 56.3716707,52.5319149 56.472155,52.6382979 C56.6731235,52.8510638 56.874092,53.0638298 56.9745763,53.3829787 C57.0750605,53.7021277 57.1755448,54.0212766 57.1755448,54.4468085 C57.1755448,54.7659574 57.1755448,55.0851064 57.0750605,55.4042553 C56.9745763,55.7234043 56.874092,55.9361702 56.7736077,56.0425532 C56.6731235,56.2553191 56.472155,56.3617021 56.3716707,56.4680851 C56.2711864,56.5744681 56.0702179,56.6808511 55.8692494,56.6808511 C55.6682809,56.6808511 55.4673123,56.787234 55.1658596,56.787234 L53.5581114,56.787234 Z M54.1610169,56.2553191 L55.0653753,56.2553191 C55.3668281,56.2553191 55.5677966,56.2553191 55.7687651,56.1489362 C55.9697337,56.0425532 56.0702179,56.0425532 56.1707022,55.9361702 C56.2711864,55.8297872 56.3716707,55.6170213 56.472155,55.2978723 C56.5726392,55.0851064 56.5726392,54.7659574 56.5726392,54.4468085 C56.5726392,53.9148936 56.472155,53.5957447 56.3716707,53.3829787 C56.2711864,53.1702128 56.0702179,52.9574468 55.8692494,52.8510638 C55.6682809,52.7446809 55.4673123,52.7446809 55.1658596,52.7446809 L54.2615012,52.7446809 L54.2615012,56.2553191 L54.1610169,56.2553191 Z M52.0508475,52.212766 L52.653753,52.212766 L52.653753,54.8723404 C52.653753,55.2978723 52.653753,55.7234043 52.5532688,55.9361702 C52.4527845,56.2553191 52.251816,56.4680851 52.0508475,56.5744681 C51.7493947,56.787234 51.4479419,56.787234 51.0460048,56.787234 C50.6440678,56.787234 50.342615,56.6808511 50.0411622,56.5744681 C49.7397094,56.4680851 49.6392252,56.2553191 49.4382567,55.9361702 C49.3377724,55.6170213 49.2372881,55.2978723 49.2372881,54.7659574 L49.2372881,52.106383 L49.8401937,52.106383 L49.8401937,54.7659574 C49.8401937,55.1914894 49.8401937,55.5106383 49.940678,55.6170213 C50.0411622,55.8297872 50.1416465,55.9361702 50.342615,56.0425532 C50.5435835,56.1489362 50.7445521,56.1489362 50.9455206,56.1489362 C51.3474576,56.1489362 51.6489104,56.0425532 51.8498789,55.8297872 C52.0508475,55.6170213 52.1513317,55.1914894 52.1513317,54.6595745 L52.1513317,52.212766 L52.0508475,52.212766 Z M44.6150121,56.787234 L46.3232446,52.212766 L46.9261501,52.212766 L48.7348668,56.787234 L48.031477,56.787234 L47.5290557,55.4042553 L45.720339,55.4042553 L45.2179177,56.787234 L44.6150121,56.787234 Z M45.8208232,54.9787234 L47.3280872,54.9787234 L46.8256659,53.7021277 C46.7251816,53.2765957 46.6246973,52.9574468 46.5242131,52.7446809 C46.4237288,53.0638298 46.4237288,53.3829787 46.3232446,53.5957447 L45.8208232,54.9787234 Z M40.7966102,55.2978723 L41.2990315,55.2978723 C41.2990315,55.5106383 41.3995157,55.7234043 41.5,55.8297872 C41.6004843,55.9361702 41.7009685,56.1489362 41.901937,56.1489362 C42.1029056,56.2553191 42.3038741,56.2553191 42.6053269,56.2553191 C42.8062954,56.2553191 43.0072639,56.2553191 43.2082324,56.1489362 C43.409201,56.0425532 43.5096852,55.9361702 43.6101695,55.8297872 C43.7106538,55.7234043 43.7106538,55.6170213 43.7106538,55.4042553 C43.7106538,55.2978723 43.7106538,55.0851064 43.6101695,54.9787234 C43.5096852,54.8723404 43.409201,54.7659574 43.2082324,54.6595745 C43.1077482,54.6595745 42.8062954,54.5531915 42.4043584,54.4468085 C42.0024213,54.3404255 41.7009685,54.2340426 41.6004843,54.1276596 C41.3995157,54.0212766 41.1985472,53.9148936 41.098063,53.7021277 C40.9975787,53.4893617 40.8970944,53.3829787 40.8970944,53.1702128 C40.8970944,52.9574468 40.9975787,52.7446809 41.098063,52.5319149 C41.1985472,52.3191489 41.3995157,52.212766 41.6004843,52.106383 C41.8014528,52 42.1029056,52 42.4043584,52 C42.7058111,52 43.0072639,52.106383 43.3087167,52.212766 C43.5096852,52.3191489 43.7106538,52.5319149 43.9116223,52.7446809 C44.0121065,52.9574468 44.1125908,53.1702128 44.1125908,53.4893617 L43.5096852,53.4893617 C43.5096852,53.1702128 43.409201,52.9574468 43.2082324,52.8510638 C43.0072639,52.7446809 42.8062954,52.6382979 42.4043584,52.6382979 C42.1029056,52.6382979 41.8014528,52.7446809 41.6004843,52.8510638 C41.3995157,52.9574468 41.3995157,53.1702128 41.3995157,53.3829787 C41.3995157,53.5957447 41.5,53.7021277 41.6004843,53.8085106 C41.7009685,53.9148936 42.0024213,54.0212766 42.5048426,54.1276596 C43.0072639,54.2340426 43.3087167,54.3404255 43.5096852,54.4468085 C43.811138,54.5531915 43.9116223,54.7659574 44.1125908,54.8723404 C44.2130751,55.0851064 44.3135593,55.2978723 44.3135593,55.5106383 C44.3135593,55.7234043 44.2130751,55.9361702 44.1125908,56.2553191 C44.0121065,56.4680851 43.811138,56.6808511 43.5096852,56.787234 C43.3087167,56.893617 43.0072639,57 42.7058111,57 C42.3038741,57 42.0024213,56.893617 41.7009685,56.787234 C41.3995157,56.6808511 41.1985472,56.4680851 41.098063,56.2553191 C40.8970944,55.9361702 40.7966102,55.6170213 40.7966102,55.2978723 L40.7966102,55.2978723 Z M35.5714286,56.787234 L35.5714286,52.212766 L38.4854722,52.212766 L38.4854722,52.7446809 L36.0738499,52.7446809 L36.0738499,54.1276596 L38.0835351,54.1276596 L38.0835351,54.6595745 L36.0738499,54.6595745 L36.0738499,56.787234 L35.5714286,56.787234 Z M30.6476998,54.5531915 C30.6476998,53.8085106 30.8486683,53.1702128 31.2506053,52.7446809 C31.6525424,52.3191489 32.1549637,52.106383 32.7578692,52.106383 C33.1598063,52.106383 33.5617433,52.212766 33.8631961,52.4255319 C34.1646489,52.6382979 34.4661017,52.9574468 34.566586,53.2765957 C34.7675545,53.5957447 34.8680387,54.0212766 34.8680387,54.5531915 C34.8680387,54.9787234 34.7675545,55.4042553 34.566586,55.8297872 C34.3656174,56.1489362 34.1646489,56.4680851 33.7627119,56.6808511 C33.4612591,56.893617 33.059322,57 32.657385,57 C32.2554479,57 31.8535109,56.893617 31.5520581,56.6808511 C31.2506053,56.4680851 30.9491525,56.1489362 30.8486683,55.8297872 C30.748184,55.4042553 30.6476998,54.9787234 30.6476998,54.5531915 L30.6476998,54.5531915 Z M31.2506053,54.5531915 C31.2506053,55.0851064 31.3510896,55.5106383 31.6525424,55.8297872 C31.9539952,56.1489362 32.2554479,56.3617021 32.7578692,56.3617021 C33.1598063,56.3617021 33.5617433,56.1489362 33.8631961,55.8297872 C34.1646489,55.5106383 34.2651332,55.0851064 34.2651332,54.4468085 C34.2651332,54.0212766 34.1646489,53.7021277 34.0641646,53.4893617 C33.9636804,53.1702128 33.7627119,52.9574468 33.5617433,52.8510638 C33.3607748,52.7446809 33.059322,52.6382979 32.7578692,52.6382979 C32.3559322,52.6382979 31.9539952,52.7446809 31.6525424,53.0638298 C31.4515738,53.3829787 31.2506053,53.9148936 31.2506053,54.5531915 L31.2506053,54.5531915 Z M24.0157385,56.787234 L24.0157385,52.212766 L24.9200969,52.212766 L25.9249395,55.5106383 C26.0254237,55.8297872 26.125908,56.0425532 26.125908,56.1489362 C26.125908,55.9361702 26.2263923,55.7234043 26.3268765,55.4042553 L27.3317191,52.212766 L28.1355932,52.212766 L28.1355932,56.787234 L27.5326877,56.787234 L27.5326877,52.9574468 L26.2263923,56.787234 L25.7239709,56.787234 L24.4176755,52.8510638 L24.4176755,56.787234 L24.0157385,56.787234 L24.0157385,56.787234 Z M19.0920097,54.5531915 C19.0920097,53.8085106 19.2929782,53.1702128 19.6949153,52.7446809 C20.0968523,52.3191489 20.5992736,52.106383 21.2021792,52.106383 C21.6041162,52.106383 22.0060533,52.212766 22.3075061,52.4255319 C22.6089588,52.6382979 22.9104116,52.9574468 23.0108959,53.2765957 C23.2118644,53.5957447 23.3123487,54.0212766 23.3123487,54.5531915 C23.3123487,54.9787234 23.2118644,55.4042553 23.0108959,55.8297872 C22.8099274,56.1489362 22.6089588,56.4680851 22.2070218,56.6808511 C21.905569,56.893617 21.503632,57 21.1016949,57 C20.6997579,57 20.2978208,56.893617 19.996368,56.6808511 C19.6949153,56.4680851 19.3934625,56.1489362 19.2929782,55.8297872 C19.1924939,55.4042553 19.0920097,54.9787234 19.0920097,54.5531915 L19.0920097,54.5531915 Z M19.6949153,54.5531915 C19.6949153,55.0851064 19.7953995,55.5106383 20.0968523,55.8297872 C20.3983051,56.1489362 20.6997579,56.3617021 21.2021792,56.3617021 C21.6041162,56.3617021 22.0060533,56.1489362 22.3075061,55.8297872 C22.6089588,55.5106383 22.7094431,55.0851064 22.7094431,54.4468085 C22.7094431,54.0212766 22.6089588,53.7021277 22.5084746,53.4893617 C22.4079903,53.1702128 22.2070218,52.9574468 22.0060533,52.8510638 C21.8050847,52.7446809 21.503632,52.6382979 21.2021792,52.6382979 C20.8002421,52.6382979 20.3983051,52.7446809 20.0968523,53.0638298 C19.8958838,53.3829787 19.6949153,53.9148936 19.6949153,54.5531915 L19.6949153,54.5531915 Z M14.8716707,56.787234 L14.8716707,52.212766 L16.3789346,52.212766 C16.6803874,52.212766 16.9818402,52.212766 17.1828087,52.3191489 C17.3837772,52.4255319 17.68523,52.5319149 17.7857143,52.6382979 C17.9866828,52.8510638 18.1876513,53.0638298 18.2881356,53.3829787 C18.3886199,53.7021277 18.4891041,54.0212766 18.4891041,54.4468085 C18.4891041,54.7659574 18.4891041,55.0851064 18.3886199,55.4042553 C18.2881356,55.7234043 18.1876513,55.9361702 18.0871671,56.0425532 C17.9866828,56.2553191 17.7857143,56.3617021 17.68523,56.4680851 C17.5847458,56.5744681 17.3837772,56.6808511 17.1828087,56.6808511 C16.9818402,56.6808511 16.7808717,56.787234 16.4794189,56.787234 L14.8716707,56.787234 Z M15.4745763,56.2553191 L16.3789346,56.2553191 C16.6803874,56.2553191 16.8813559,56.2553191 17.0823245,56.1489362 C17.283293,56.0425532 17.3837772,56.0425532 17.4842615,55.9361702 C17.5847458,55.8297872 17.68523,55.6170213 17.7857143,55.2978723 C17.8861985,55.0851064 17.8861985,54.7659574 17.8861985,54.4468085 C17.8861985,53.9148936 17.7857143,53.5957447 17.68523,53.3829787 C17.5847458,53.1702128 17.3837772,52.9574468 17.1828087,52.8510638 C16.9818402,52.7446809 16.7808717,52.7446809 16.4794189,52.7446809 L15.5750605,52.7446809 L15.5750605,56.2553191 L15.4745763,56.2553191 Z M12.1585956,54.9787234 L12.1585956,54.4468085 L13.9673123,54.4468085 L13.9673123,56.1489362 C13.6658596,56.3617021 13.3644068,56.5744681 13.062954,56.6808511 C12.7615012,56.787234 12.4600484,56.893617 12.1585956,56.893617 C11.7566586,56.893617 11.3547215,56.787234 10.9527845,56.5744681 C10.6513317,56.3617021 10.3498789,56.1489362 10.1489104,55.7234043 C9.94794189,55.4042553 9.84745763,54.9787234 9.84745763,54.4468085 C9.84745763,54.0212766 9.94794189,53.5957447 10.1489104,53.1702128 C10.3498789,52.7446809 10.5508475,52.5319149 10.9527845,52.3191489 C11.2542373,52.106383 11.6561743,52 12.0581114,52 C12.3595642,52 12.6610169,52.106383 12.9624697,52.212766 C13.2639225,52.3191489 13.464891,52.4255319 13.5653753,52.6382979 C13.6658596,52.8510638 13.8668281,53.0638298 13.8668281,53.3829787 L13.3644068,53.4893617 C13.2639225,53.2765957 13.2639225,53.0638298 13.1634383,52.9574468 C13.062954,52.8510638 12.9624697,52.7446809 12.7615012,52.6382979 C12.5605327,52.5319149 12.3595642,52.5319149 12.1585956,52.5319149 C11.8571429,52.5319149 11.6561743,52.5319149 11.4552058,52.6382979 C11.2542373,52.7446809 11.153753,52.8510638 10.9527845,52.9574468 C10.8523002,53.0638298 10.751816,53.2765957 10.6513317,53.3829787 C10.5508475,53.7021277 10.4503632,54.0212766 10.4503632,54.3404255 C10.4503632,54.7659574 10.5508475,55.0851064 10.6513317,55.4042553 C10.751816,55.7234043 10.9527845,55.9361702 11.2542373,56.0425532 C11.5556901,56.1489362 11.7566586,56.2553191 12.0581114,56.2553191 C12.2590799,56.2553191 12.5605327,56.2553191 12.7615012,56.1489362 C12.9624697,56.0425532 13.1634383,55.9361702 13.2639225,55.8297872 L13.2639225,54.9787234 L12.1585956,54.9787234 L12.1585956,54.9787234 Z M5.72760291,56.787234 L5.72760291,52.212766 L6.33050847,52.212766 L8.64164649,55.8297872 L8.64164649,52.212766 L9.24455206,52.212766 L9.24455206,56.787234 L8.64164649,56.787234 L6.33050847,53.1702128 L6.33050847,56.787234 L5.72760291,56.787234 Z M4.11985472,52.212766 L4.72276029,52.212766 L4.72276029,56.787234 L4.11985472,56.787234 L4.11985472,52.212766 Z" id="Shape"></path>
                <path d="M31,22 C31.1034483,22.2003866 31.3103448,22.6011599 31.3103448,22.9017399 C31.3103448,22.9017399 31.9310345,21.8998067 33.1724138,22.7013533 C33.1724138,22.7013533 32.137931,22.6011599 31.8275862,23.1021266 C31.8275862,23.1021266 33.4827586,22.7013533 33.7931034,24.2042531 C33.7931034,24.2042531 33.0689655,23.4027065 32.3448276,23.5028999 C32.3448276,23.5028999 33.8965517,24.0038665 33.4827586,25.6069597 C33.4827586,25.6069597 33.3793103,24.2042531 32.2413793,24.0038665 C32.2413793,24.0038665 33.2758621,24.8054131 32.862069,26.4085063 C32.862069,26.4085063 32.862069,25.2061864 32.137931,24.7052198 C32.137931,24.7052198 32.6551724,25.9075396 31.8275862,27.0096662 C31.8275862,27.0096662 32.2413793,25.6069597 31.5172414,25.105993 C31.5172414,25.105993 31.2068966,24.9056064 31.2068966,25.406573 C31.2068966,25.406573 31.1034483,28.3121794 31.3103448,29.8150793 C31.3103448,29.8150793 34.3103448,27.3102462 37,29.0135327 C37,29.0135327 34.4137931,27.8112128 31.4137931,30.5164325 L33.3793103,32.2197191 C33.4827586,32.1195257 33.5862069,32.0193324 33.7931034,32.0193324 C34.1034483,32.0193324 34.3103448,32.2197191 34.3103448,32.520299 C34.3103448,33.121459 33.3793103,33.121459 33.0689655,32.7206857 L31,30.8170125 L31,30.8170125 L31,30.8170125 L28.9310345,32.7206857 C28.6206897,33.121459 27.6896552,33.121459 27.6896552,32.520299 C27.6896552,32.2197191 27.8965517,32.0193324 28.2068966,32.0193324 C28.4137931,32.0193324 28.5172414,32.1195257 28.6206897,32.2197191 L30.5862069,30.5164325 C27.5862069,27.8112128 25,29.0135327 25,29.0135327 C27.5862069,27.3102462 30.6896552,29.8150793 30.6896552,29.8150793 C30.7931034,28.4123727 30.7931034,25.406573 30.7931034,25.406573 C30.7931034,24.9056064 30.4827586,25.105993 30.4827586,25.105993 C29.7586207,25.6069597 30.1724138,27.0096662 30.1724138,27.0096662 C29.3448276,25.9075396 29.862069,24.7052198 29.862069,24.7052198 C29.137931,25.3063797 29.137931,26.4085063 29.137931,26.4085063 C28.7241379,24.8054131 29.7586207,24.0038665 29.7586207,24.0038665 C28.7241379,24.2042531 28.5172414,25.6069597 28.5172414,25.6069597 C28.1034483,24.0038665 29.6551724,23.5028999 29.6551724,23.5028999 C28.9310345,23.4027065 28.2068966,24.2042531 28.2068966,24.2042531 C28.5172414,22.7013533 30.1724138,23.1021266 30.1724138,23.1021266 C29.9655172,22.6011599 28.8275862,22.7013533 28.8275862,22.7013533 C30.0689655,21.8998067 30.6896552,22.9017399 30.6896552,22.9017399 C30.6896552,22.6011599 30.8965517,22.2003866 31,22" id="Shape"></path>
                <path d="M4.4,50.4776119 L5,50.4776119 L5,49.8507463 L4.4,49.8507463 L4.4,50.4776119 Z M3.1,44.1044776 L2.5,44.1044776 L2.5,44.7313433 L3.1,44.7313433 L3.1,44.1044776 Z M5.4,50.4776119 L6,50.4776119 L6,49.8507463 L5.4,49.8507463 L5.4,50.4776119 Z M2.2,44.1044776 L1.6,44.1044776 L1.6,44.7313433 L2.2,44.7313433 L2.2,44.1044776 Z M9.3,45.880597 C9.2,45.6716418 9,45.5671642 8.8,45.4626866 C8.6,45.358209 8.4,45.358209 8.2,45.358209 L7.8,45.358209 L7.8,45.880597 L8.3,45.880597 C8.4,45.880597 8.5,45.880597 8.7,45.9850746 C8.8,46.0895522 8.9,46.0895522 9,46.1940299 C9.1,46.2985075 9.1,46.4029851 9.2,46.5074627 L9.2,46.9253731 L9.2,48.5970149 L6.7,48.5970149 L6.7,49.119403 L9.8,49.119403 L9.8,46.9253731 C9.8,46.7164179 9.8,46.5074627 9.7,46.2985075 C9.5,46.1940299 9.4,45.9850746 9.3,45.880597 L9.3,45.880597 Z M30.4,49.2238806 L30.9,49.2238806 L30.9,44.1044776 L30.4,44.1044776 L30.4,49.2238806 Z M28.2,48.7014925 L28.2,48.7014925 L27.3,48.7014925 C27,48.7014925 26.7,48.7014925 26.5,48.5970149 C26.3,48.4925373 26.2,48.3880597 26.1,48.1791045 C26.1,48.0746269 26.2,47.8656716 26.2,47.6567164 L26.2,45.880597 L25.7,45.880597 L25.7,47.761194 C25.7,48.0746269 25.6,48.3880597 25.4,48.5970149 C25.2,48.8059701 25,48.9104478 24.6,48.9104478 C24.4,48.9104478 24.3,48.9104478 24.2,48.8059701 C24.1,48.8059701 24,48.7014925 23.9,48.5970149 C23.8,48.4925373 23.7,48.3880597 23.7,48.2835821 C23.6,48.1791045 23.6,48.0746269 23.6,47.8656716 L23.6,45.880597 L23.1,45.880597 L23.1,47.8656716 C23.1,48.0746269 23.1,48.1791045 23,48.2835821 C23,48.3880597 22.9,48.4925373 22.8,48.5970149 C22.7,48.7014925 22.6,48.7014925 22.5,48.8059701 C22.4,48.8059701 22.3,48.9104478 22.2,48.9104478 L21.1,48.9104478 L21.1,45.9850746 L20.6,45.9850746 L20.6,48.9104478 L17.8,48.9104478 L18.7,46.5074627 C18.6,46.4029851 18.4,46.2985075 18.2,46.0895522 C18,45.9850746 17.9,45.880597 17.7,45.7761194 C17.5,45.6716418 17.3,45.5671642 17.2,45.5671642 C17,45.5671642 16.8,45.4626866 16.7,45.4626866 C16.5,45.4626866 16.3,45.4626866 16.2,45.5671642 C16.1,45.6716418 15.8,45.6716418 15.7,45.7761194 C15.5,45.880597 15.4,45.9850746 15.2,46.0895522 C15,46.1940299 14.9,46.2985075 14.7,46.5074627 L15.7,48.9104478 L13.8,48.9104478 L13.8,45.6716418 L12.9,45.6716418 C12.6,45.6716418 12.3,45.6716418 12,45.7761194 C11.7,45.880597 11.5,45.9850746 11.3,46.1940299 C11.1,46.4029851 10.9,46.6119403 10.8,46.8208955 C10.7,47.0298507 10.6,47.3432836 10.6,47.5522388 C10.6,47.8656716 10.7,48.1791045 10.8,48.3880597 C10.9,48.5970149 11.1,48.8059701 11.3,49.0149254 C11.5,49.119403 11.7,49.3283582 12,49.3283582 C12.3,49.4328358 12.6,49.4328358 12.9,49.4328358 L13.2,49.4328358 L13.2,49.5373134 C13.2,49.8507463 13.1,50.0597015 13,50.1641791 C12.8,50.2686567 12.6,50.3731343 12.3,50.3731343 L11.8,50.3731343 C11.7,50.3731343 11.5,50.2686567 11.3,50.1641791 L11.1,50.6865672 C11.3,50.7910448 11.5,50.7910448 11.6,50.8955224 C11.8,50.8955224 11.9,51 12.1,51 C12.6,51 13,50.8955224 13.3,50.5820896 C13.5,50.3731343 13.7,49.9552239 13.7,49.5373134 L13.7,49.4328358 L22.2,49.4328358 C22.5,49.4328358 22.7,49.3283582 22.9,49.2238806 C23.1,49.119403 23.3,48.9104478 23.4,48.7014925 C23.5,48.9104478 23.7,49.119403 23.9,49.2238806 C24.1,49.3283582 24.4,49.4328358 24.7,49.4328358 C25,49.4328358 25.3,49.3283582 25.5,49.2238806 C25.7,49.119403 25.9,48.9104478 26,48.7014925 C26,48.8059701 26.1,48.9104478 26.2,48.9104478 C26.3,49.0149254 26.3,49.0149254 26.4,49.119403 C26.5,49.2238806 26.6,49.2238806 26.8,49.2238806 L27.2,49.2238806 L27.2,49.2238806 L28.8,49.2238806 L28.8,44.1044776 L28.3,44.1044776 L28.3,48.7014925 L28.2,48.7014925 Z M41.4,50.4776119 L42,50.4776119 L42,49.8507463 L41.4,49.8507463 L41.4,50.4776119 Z M46.7,48.7014925 L45.9,46.5074627 C46.1,46.2985075 46.3,46.1940299 46.5,46.0895522 C46.7,45.9850746 47,45.9850746 47.2,45.9850746 C47.4,45.9850746 47.7,45.9850746 47.9,46.0895522 C48.2,46.1940299 48.4,46.2985075 48.5,46.5074627 L47.6,48.7014925 L46.7,48.7014925 Z M50.6,48.7014925 L48.3,48.7014925 L49.3,46.2985075 C49.2,46.1940299 49,46.0895522 48.8,45.880597 C48.6,45.7761194 48.5,45.6716418 48.3,45.5671642 C48.1,45.4626866 48,45.4626866 47.8,45.358209 C47.6,45.358209 47.4,45.2537313 47.3,45.2537313 C47.1,45.2537313 46.9,45.2537313 46.8,45.358209 C46.6,45.358209 46.4,45.4626866 46.3,45.5671642 C46.1,45.6716418 46,45.7761194 45.8,45.880597 C45.6,45.9850746 45.5,46.0895522 45.3,46.2985075 C46.3,48.5970149 46.3,48.7014925 46.3,48.7014925 L44.3,48.7014925 L44.3,45.358209 L43.8,45.358209 L43.8,49.3283582 L43.8,49.7462687 C43.8,49.8507463 43.8,49.9552239 43.7,49.9552239 C43.7,50.0597015 43.6,50.0597015 43.5,50.0597015 L43.3,50.0597015 L43.2,50.0597015 L43.1,50.0597015 L43,50.5820896 C43.2,50.5820896 43.3,50.6865672 43.4,50.6865672 C43.6,50.6865672 43.8,50.6865672 43.9,50.5820896 C44,50.4776119 44.1,50.4776119 44.2,50.2686567 C44.3,50.1641791 44.3,49.9552239 44.4,49.8507463 L44.4,49.2238806 L44.4,49.119403 L51.4,49.119403 L51.4,44 L50.9,44 L50.9,48.7014925 L50.6,48.7014925 Z M39.4,50.4776119 L40,50.4776119 L40,49.8507463 L39.4,49.8507463 L39.4,50.4776119 Z M36.1,48.7014925 L35.6,48.7014925 C35.4,48.7014925 35.2,48.7014925 35,48.5970149 C34.8,48.4925373 34.7,48.4925373 34.5,48.2835821 C34.4,48.1791045 34.3,48.0746269 34.2,47.8656716 C34.1,47.6567164 34.1,47.4477612 34.1,47.3432836 C34.1,47.1343284 34.1,46.9253731 34.2,46.8208955 C34.3,46.7164179 34.4,46.5074627 34.5,46.4029851 C34.6,46.2985075 34.8,46.1940299 35,46.0895522 C35.2,45.9850746 35.4,45.9850746 35.5,45.9850746 L36,45.9850746 L36,48.7014925 L36.1,48.7014925 Z M41.9,45.358209 L41.4,45.358209 L41.4,48.7014925 L39.4,48.7014925 L39.4,45.358209 L38.9,45.358209 L38.9,48.7014925 L36.7,48.7014925 L36.7,45.358209 L35.8,45.358209 C35.5,45.358209 35.2,45.4626866 34.9,45.4626866 C34.6,45.5671642 34.4,45.6716418 34.2,45.880597 C34,46.0895522 33.8,46.2985075 33.7,46.5074627 C33.6,46.7164179 33.5,47.0298507 33.5,47.238806 C33.5,47.5522388 33.6,47.8656716 33.7,48.0746269 C33.8,48.2835821 34,48.4925373 34.2,48.7014925 C34.4,48.8059701 34.6,48.9104478 34.9,49.0149254 C35.2,49.119403 35.4,49.119403 35.8,49.119403 L42,49.119403 L42,45.358209 L41.9,45.358209 Z M38.5,50.4776119 L39.1,50.4776119 L39.1,49.8507463 L38.5,49.8507463 L38.5,50.4776119 Z M36.6,44.2089552 L36.1,44.2089552 L36.1,44.8358209 L36.7,44.8358209 L36.7,44.2089552 L36.6,44.2089552 Z M35.7,44.2089552 L35.1,44.2089552 L35.1,44.8358209 L35.7,44.8358209 L35.7,44.2089552 Z M52.7,49.2238806 L53.2,49.2238806 L53.2,44.1044776 L52.7,44.1044776 L52.7,49.2238806 Z M77,48.7014925 C76.9,48.9104478 76.8,49.0149254 76.7,49.2238806 C76.6,49.3283582 76.4,49.4328358 76.3,49.5373134 C76.1,49.641791 75.9,49.641791 75.7,49.641791 C75.5,49.641791 75.3,49.641791 75.1,49.5373134 C74.9,49.4328358 74.8,49.3283582 74.7,49.2238806 C74.6,49.119403 74.5,48.9104478 74.4,48.7014925 C74.3,48.4925373 74.3,48.2835821 74.3,48.1791045 C74.3,47.9701493 74.3,47.761194 74.4,47.5522388 C74.5,47.3432836 74.6,47.238806 74.7,47.0298507 C74.8,46.9253731 75,46.8208955 75.1,46.7164179 C75.3,46.6119403 75.5,46.6119403 75.7,46.6119403 C75.9,46.6119403 76.1,46.6119403 76.3,46.7164179 C76.5,46.8208955 76.6,46.9253731 76.8,47.0298507 C76.9,47.1343284 77,47.3432836 77.1,47.5522388 C77.2,47.761194 77.2,47.9701493 77.2,48.1791045 C77.1,48.3880597 77.1,48.5970149 77,48.7014925 L77,48.7014925 Z M71.7,48.7014925 C71.6,48.9104478 71.5,49.0149254 71.4,49.2238806 C71.3,49.3283582 71.1,49.4328358 70.9,49.5373134 C70.7,49.641791 70.5,49.641791 70.3,49.641791 C70.1,49.641791 69.9,49.641791 69.7,49.5373134 C69.5,49.4328358 69.4,49.3283582 69.3,49.2238806 C69.2,49.119403 69.1,48.9104478 69,48.7014925 C68.9,48.4925373 68.9,48.2835821 68.9,48.1791045 C68.9,47.9701493 68.9,47.761194 69,47.5522388 C69.1,47.3432836 69.2,47.238806 69.3,47.0298507 C69.4,46.9253731 69.6,46.8208955 69.7,46.7164179 C69.9,46.6119403 70.1,46.6119403 70.3,46.6119403 C70.5,46.6119403 70.7,46.6119403 70.9,46.7164179 C71.1,46.8208955 71.2,46.9253731 71.4,47.0298507 C71.5,47.1343284 71.6,47.3432836 71.7,47.5522388 C71.8,47.761194 71.8,47.9701493 71.8,48.1791045 C71.8,48.3880597 71.8,48.5970149 71.7,48.7014925 L71.7,48.7014925 Z M58.5,49.0149254 L58,49.0149254 C57.8,49.0149254 57.6,49.0149254 57.4,48.9104478 C57.2,48.8059701 57.1,48.8059701 56.9,48.5970149 C56.8,48.4925373 56.7,48.3880597 56.6,48.1791045 C56.5,47.9701493 56.5,47.761194 56.5,47.6567164 C56.5,47.4477612 56.5,47.238806 56.6,47.1343284 C56.7,47.0298507 56.8,46.8208955 56.9,46.7164179 C57,46.6119403 57.2,46.5074627 57.4,46.4029851 C57.6,46.2985075 57.8,46.2985075 57.9,46.2985075 L58.4,46.2985075 L58.4,49.0149254 L58.5,49.0149254 Z M79.4,49.0149254 L77.5,49.0149254 C77.6,48.7014925 77.7,48.4925373 77.7,48.1791045 C77.7,47.8656716 77.6,47.6567164 77.5,47.3432836 C77.4,47.1343284 77.3,46.8208955 77.1,46.7164179 C76.9,46.5074627 76.7,46.4029851 76.5,46.2985075 C76.3,46.1940299 76,46.1940299 75.7,46.1940299 C75.4,46.1940299 75.2,46.1940299 74.9,46.2985075 C74.7,46.4029851 74.5,46.5074627 74.3,46.7164179 C74.1,46.9253731 74,47.1343284 73.9,47.3432836 C73.8,47.5522388 73.7,47.8656716 73.7,48.1791045 L73.7,48.5970149 C73.7,48.7014925 73.8,48.8059701 73.8,49.0149254 L72.1,49.0149254 C72.2,48.7014925 72.3,48.4925373 72.3,48.1791045 C72.3,47.8656716 72.2,47.6567164 72.1,47.3432836 C72,47.1343284 71.9,46.8208955 71.7,46.7164179 C71.5,46.5074627 71.3,46.4029851 71.1,46.2985075 C70.9,46.1940299 70.6,46.1940299 70.3,46.1940299 C70,46.1940299 69.8,46.1940299 69.5,46.2985075 C69.3,46.4029851 69.1,46.5074627 68.9,46.7164179 C68.7,46.9253731 68.6,47.1343284 68.5,47.3432836 C68.4,47.5522388 68.4,47.8656716 68.4,48.1791045 L68.4,48.5970149 C68.4,48.7014925 68.5,48.8059701 68.5,49.0149254 L66.8,49.0149254 L66.8,44.5223881 L66.3,44.5223881 L66.3,49.0149254 L64.6,49.0149254 L64.6,48.1791045 C64.6,47.9701493 64.6,47.761194 64.5,47.5522388 C64.4,47.3432836 64.4,47.1343284 64.2,47.0298507 C64.1,46.9253731 63.9,46.7164179 63.7,46.6119403 C63.5,46.5074627 63.3,46.5074627 63,46.5074627 L60.6,46.5074627 L61.6,44.4179104 L61,44.4179104 L60,46.4029851 C60,46.5074627 60,46.6119403 60.1,46.7164179 C60.1,46.8208955 60.2,46.9253731 60.3,46.9253731 L63.1,46.9253731 C63.3,46.9253731 63.4,46.9253731 63.5,47.0298507 C63.6,47.0298507 63.7,47.1343284 63.8,47.238806 C63.9,47.3432836 63.9,47.4477612 64,47.5522388 L64,47.9701493 L64,48.8059701 L59,48.8059701 L59,45.4626866 L58.1,45.4626866 C57.8,45.4626866 57.5,45.5671642 57.2,45.5671642 C56.9,45.6716418 56.7,45.7761194 56.5,45.9850746 C56.3,46.1940299 56.2,46.4029851 56.1,46.6119403 C56,46.8208955 55.9,47.1343284 55.9,47.3432836 C55.9,47.6567164 56,47.9701493 56.1,48.1791045 C56.2,48.3880597 56.4,48.5970149 56.6,48.8059701 C56.8,48.9104478 57,49.0149254 57.3,49.119403 C57.6,49.2238806 57.9,49.2238806 58.2,49.2238806 L69,49.2238806 C69.2,49.4328358 69.4,49.641791 69.6,49.7462687 C69.9,49.8507463 70.1,49.9552239 70.4,49.9552239 C70.7,49.9552239 71,49.9552239 71.2,49.7462687 C71.5,49.641791 71.7,49.5373134 71.8,49.2238806 L74.2,49.2238806 C74.4,49.4328358 74.6,49.641791 74.8,49.7462687 C75.1,49.8507463 75.3,49.9552239 75.6,49.9552239 C75.9,49.9552239 76.2,49.9552239 76.4,49.7462687 C76.7,49.641791 76.9,49.5373134 77,49.2238806 L79.8,49.2238806 L79.8,44.1044776 L79.3,44.1044776 L79.3,49.0149254 L79.4,49.0149254 Z M81.5,49.5373134 L82,49.5373134 L82,44.4179104 L81.5,44.4179104 L81.5,49.5373134 Z M58.1,44.5223881 L57.5,44.5223881 L57.5,45.1492537 L58.1,45.1492537 L58.1,44.5223881 Z M59,44.5223881 L58.4,44.5223881 L58.4,45.1492537 L59,45.1492537 L59,44.5223881 Z M5.8,45.358209 L5.3,45.358209 L5.3,48.5970149 L3.1,48.5970149 L3.1,45.358209 L2.2,45.358209 C1.9,45.358209 1.6,45.358209 1.3,45.4626866 C1,45.5671642 0.8,45.6716418 0.6,45.880597 C0.4,46.0895522 0.3,46.2985075 0.2,46.5074627 C0.1,46.7164179 0,47.0298507 0,47.238806 C0,47.5522388 0.1,47.8656716 0.2,48.0746269 C0.3,48.2835821 0.5,48.4925373 0.7,48.7014925 C0.9,48.8059701 1.1,49.0149254 1.4,49.0149254 C1.7,49.119403 2,49.119403 2.3,49.119403 L5.9,49.119403 L5.9,45.358209 L5.8,45.358209 Z M2.6,48.7014925 L2.1,48.7014925 C1.9,48.7014925 1.7,48.7014925 1.5,48.5970149 C1.3,48.4925373 1.2,48.4925373 1,48.2835821 C0.9,48.1791045 0.8,48.0746269 0.7,47.8656716 C0.6,47.6567164 0.6,47.5522388 0.6,47.3432836 C0.6,47.1343284 0.6,46.9253731 0.7,46.8208955 C0.8,46.6119403 0.9,46.5074627 1,46.4029851 C1.1,46.2985075 1.3,46.1940299 1.5,46.0895522 C1.7,45.9850746 1.9,45.9850746 2,45.9850746 L2.5,45.9850746 L2.5,48.7014925 L2.6,48.7014925 Z M13.1,48.7014925 L12.6,48.7014925 C12.4,48.7014925 12.2,48.7014925 12,48.5970149 C11.8,48.4925373 11.7,48.4925373 11.5,48.2835821 C11.4,48.1791045 11.2,48.0746269 11.2,47.8656716 C11.1,47.6567164 11.1,47.5522388 11.1,47.3432836 C11.1,47.1343284 11.1,46.9253731 11.2,46.8208955 C11.3,46.6119403 11.4,46.5074627 11.5,46.4029851 C11.6,46.2985075 11.8,46.1940299 12,46.0895522 C12.2,45.9850746 12.4,45.9850746 12.6,45.9850746 L13.1,45.9850746 L13.1,48.7014925 Z M16.1,48.7014925 L15.2,46.5074627 C15.4,46.2985075 15.6,46.1940299 15.8,46.0895522 C16,45.9850746 16.2,45.9850746 16.5,45.9850746 C16.7,45.9850746 17,45.9850746 17.2,46.0895522 C17.4,46.1940299 17.6,46.2985075 17.8,46.5074627 L17,48.7014925 L16.1,48.7014925 Z" id="Shape"></path>
                <path d="M66.9,13.0735294 L67.8,13.0735294 L67.8,14 L66.9,14 L66.9,13.0735294 Z M68.8,13.0735294 L69.7,13.0735294 L69.7,14 L68.8,14 L68.8,13.0735294 Z M50.2,2.05882353 L49.3,2.05882353 L49.3,1.13235294 L50.2,1.13235294 L50.2,2.05882353 Z M72.8,8.85294118 C73.2,9.16176471 73.6,9.26470588 74,9.47058824 C74.5,9.57352941 75,9.67647059 75.5,9.67647059 L75.7,9.67647059 L76,8.95588235 L76,9.88235294 C76,10.3970588 75.8,10.7058824 75.6,11.0147059 C75.3,11.2205882 74.9,11.3235294 74.4,11.3235294 C74.1,11.3235294 73.9,11.3235294 73.6,11.2205882 C73.4,11.1176471 73.1,11.1176471 72.8,10.9117647 L72.5,11.8382353 C72.9,11.9411765 73.2,12.0441176 73.5,12.1470588 C73.8,12.25 74.1,12.25 74.3,12.25 C75.2,12.25 75.9,12.0441176 76.3,11.6323529 C76.7,11.2205882 76.9,10.6029412 76.9,9.88235294 L76.9,3.19117647 L75.4,3.19117647 C74.8,3.19117647 74.3,3.29411765 73.8,3.39705882 C73.3,3.60294118 72.9,3.80882353 72.6,4.11764706 C72.2,4.42647059 72,4.73529412 71.8,5.14705882 C71.6,5.55882353 71.5,5.97058824 71.5,6.48529412 C71.5,7 71.6,7.51470588 71.8,7.92647059 C72.1,8.23529412 72.4,8.54411765 72.8,8.85294118 L72.8,8.85294118 Z M72.8,5.35294118 C72.9,5.04411765 73.1,4.83823529 73.4,4.63235294 C73.6,4.42647059 73.9,4.22058824 74.2,4.11764706 C74.5,4.01470588 74.8,3.91176471 75.1,3.91176471 L76.6,3.91176471 L76.1,4.22058824 L76.1,8.54411765 L75.1,8.54411765 C74.7,8.54411765 74.4,8.54411765 74.1,8.44117647 C73.8,8.33823529 73.5,8.13235294 73.3,8.02941176 C73.1,7.82352941 72.9,7.61764706 72.8,7.30882353 C72.7,7 72.6,6.69117647 72.6,6.38235294 C72.5,5.97058824 72.6,5.66176471 72.8,5.35294118 L72.8,5.35294118 Z M52.1,2.05882353 L51.2,2.05882353 L51.2,1.13235294 L52.1,1.13235294 L52.1,2.05882353 Z M79.4,12.25 C79.1,12.25 78.9,12.25 78.6,12.1470588 L78.8,11.2205882 C78.9,11.2205882 79,11.2205882 79.1,11.3235294 L79.3,11.3235294 C79.5,11.3235294 79.6,11.3235294 79.7,11.2205882 C79.8,11.2205882 79.9,11.1176471 80,11.0147059 C80.1,10.9117647 80.1,10.7058824 80.1,10.5 L80.1,9.77941176 L80.1,3.08823529 L81,3.08823529 L81,9.77941176 C81,10.1911765 81,10.5 80.9,10.8088235 C80.8,11.1176471 80.7,11.3235294 80.6,11.6323529 C80.5,11.8382353 80.3,12.0441176 80.1,12.1470588 C80,12.1470588 79.7,12.25 79.4,12.25 L79.4,12.25 Z M49.5,12.1470588 L51.4,12.1470588 L51.4,11.4264706 C51.4,11.4264706 51.4,11.5294118 51.5,11.5294118 C51.6,11.7352941 51.8,11.9411765 52.1,12.0441176 C52.3,12.1470588 52.6,12.25 52.9,12.25 L70,12.25 L70,3.19117647 L69.1,3.19117647 L69.1,11.3235294 L68.1,11.3235294 L52.9,11.3235294 C52.7,11.3235294 52.6,11.3235294 52.4,11.2205882 C52.3,11.1176471 52.2,11.1176471 52.1,10.9117647 C52,10.8088235 52,10.6029412 51.9,10.3970588 L51.9,9.67647059 L51.9,2.98529412 L49.4,2.98529412 C46.8,2.98529412 45,5.04411765 45,7.51470588 L45,7.51470588 C45.2,9.98529412 46.9,12.1470588 49.5,12.1470588 L49.5,12.1470588 Z M46.2,7.51470588 C46.2,5.55882353 47.6,3.91176471 49.5,3.91176471 L51.7,3.91176471 L51.1,4.22058824 L51.1,9.67647059 C51.1,10.0882353 51.1,10.3970588 51.2,10.7058824 C51.2,10.9117647 51.3,11.0147059 51.3,11.2205882 L49.5,11.2205882 C47.6,11.1176471 46.2,9.57352941 46.2,7.51470588 L46.2,7.51470588 Z M75.9,0 L76.7,0 L76.7,0.720588235 L76,0.720588235 C75.8,0.720588235 75.7,0.823529412 75.7,1.02941176 L75.7,1.33823529 L76.9,1.33823529 L76.9,2.05882353 L74.9,2.05882353 L74.9,1.02941176 C74.9,0.514705882 75.4,0 75.9,0 L75.9,0 Z" id="Shape"></path>
                <path d="M40.0096618,3.1978022 L41,3.1978022 L41,11.9010989 L40.2077295,11.9010989 L34.0676329,4.08791209 L34.5628019,5.37362637 L34.5628019,11.9010989 L33.5724638,11.9010989 L33.5724638,3.1978022 L34.4637681,3.1978022 L40.4057971,10.7142857 L40.0096618,9.62637363 L40.0096618,3.1978022 Z M3.76328502,11.9010989 L0,3.0989011 L1.08937198,3.0989011 L1.58454106,4.38461538 L4.15942029,10.5164835 L4.45652174,11.1098901 L4.35748792,10.1208791 L7.32850242,3 L8.4178744,3 L4.65458937,11.8021978 L3.76328502,11.8021978 L3.76328502,11.9010989 Z M20.4009662,3.1978022 L21.3913043,3.1978022 L21.3913043,11.9010989 L20.4009662,11.9010989 L20.4009662,3.1978022 Z M30.9975845,7.54945055 C30.9975845,9.52747253 29.6111111,11.1098901 27.6304348,11.1098901 C25.6497585,11.1098901 24.1642512,9.52747253 24.1642512,7.54945055 L24.1642512,7.54945055 C24.1642512,5.57142857 25.5507246,3.98901099 27.531401,3.98901099 C29.5120773,3.89010989 30.9975845,5.57142857 30.9975845,7.54945055 L30.9975845,7.54945055 Z M27.531401,3 C24.8574879,3 23.0748792,5.07692308 23.0748792,7.45054945 L23.0748792,7.45054945 C23.0748792,9.82417582 24.8574879,11.9010989 27.531401,11.9010989 C30.205314,11.9010989 31.9879227,9.82417582 31.9879227,7.45054945 L31.9879227,7.45054945 C31.9879227,5.07692308 30.205314,3 27.531401,3 L27.531401,3 Z M18.8164251,9.52747253 L18.8164251,9.52747253 C18.8164251,11.010989 17.5289855,12 15.8454106,12 C14.4589372,12 13.3695652,11.5054945 12.2801932,10.6153846 L12.8743961,9.92307692 C13.7657005,10.7142857 14.6570048,11.1098901 15.8454106,11.1098901 C17.0338164,11.1098901 17.826087,10.5164835 17.826087,9.62637363 L17.826087,9.62637363 C17.826087,8.83516484 17.4299517,8.34065934 15.5483092,7.94505495 C13.5676329,7.54945055 12.6763285,6.85714286 12.6763285,5.47252747 L12.6763285,5.47252747 C12.6763285,4.08791209 13.8647343,3.0989011 15.5483092,3.0989011 C16.8357488,3.0989011 17.7270531,3.49450549 18.6183575,4.18681319 L18.0241546,4.97802198 C17.2318841,4.28571429 16.4396135,3.98901099 15.5483092,3.98901099 C14.4589372,3.98901099 13.6666667,4.58241758 13.6666667,5.37362637 L13.6666667,5.37362637 C13.6666667,6.16483516 14.1618357,6.65934066 16.0434783,7.05494505 C17.9251208,7.45054945 18.8164251,8.14285714 18.8164251,9.52747253 L18.8164251,9.52747253 Z M10.794686,11.9010989 L9.80434783,11.9010989 L9.80434783,3.1978022 L10.794686,3.1978022 L10.794686,11.9010989 Z" id="Shape"></path>
            </g>
        </g>
    </g>
</svg>
